<?xml version="1.0" standalone="no"?>
<!DOCTYPE svg PUBLIC "-//W3C//DTD SVG 20010904//EN"
 "http://www.w3.org/TR/2001/REC-SVG-20010904/DTD/svg10.dtd">
<svg version="1.0" xmlns="http://www.w3.org/2000/svg"
 width="260.000000pt" height="260.000000pt" viewBox="0 0 260.000000 260.000000"
 preserveAspectRatio="xMidYMid meet">
<metadata>
Created by potrace 1.14, written by Peter Selinger 2001-2017
</metadata>
<g transform="translate(0.000000,260.000000) scale(0.100000,-0.100000)"
fill="#000000" stroke="none">
<path d="M1062 2354 c10 -10 20 -16 22 -13 3 3 -5 11 -17 18 -21 13 -21 12 -5
-5z"/>
<path d="M1165 2361 c6 -11 4 -13 -8 -8 -10 4 -17 1 -17 -6 0 -7 -3 -8 -8 -2
-4 6 -13 11 -21 13 -11 2 -12 0 -3 -10 9 -11 6 -14 -16 -13 -15 1 -38 -4 -52
-11 -18 -9 -31 -9 -44 -2 -14 8 -17 7 -12 -1 9 -14 -6 -15 -20 -1 -7 7 -21 1
-42 -20 -18 -17 -32 -25 -32 -19 0 8 -4 8 -15 -1 -8 -7 -22 -10 -30 -6 -9 3
-13 2 -10 -4 6 -9 -9 -15 -29 -11 -5 1 -5 -4 1 -11 9 -10 6 -13 -13 -14 -15
-1 -21 2 -17 10 4 6 -1 5 -10 -3 -9 -7 -14 -17 -11 -22 3 -5 -4 -9 -15 -9 -12
0 -21 -7 -21 -15 0 -13 -4 -14 -20 -5 -15 8 -18 8 -14 -3 3 -8 -3 -20 -12 -28
-15 -12 -17 -12 -9 0 5 10 4 12 -3 7 -7 -4 -12 -15 -12 -24 0 -15 -2 -15 -10
-2 -8 13 -10 12 -10 -4 0 -12 -5 -16 -14 -13 -10 4 -19 -5 -28 -24 -7 -16 -17
-29 -21 -29 -5 0 -5 5 -1 12 4 7 3 8 -5 4 -6 -4 -9 -12 -5 -17 3 -6 -4 -13
-16 -16 -16 -4 -18 -8 -8 -14 10 -7 10 -9 1 -10 -34 -4 -38 -6 -35 -17 1 -7
-2 -12 -8 -12 -5 0 -7 -8 -3 -17 3 -10 3 -15 -2 -11 -8 7 -19 -2 -45 -37 -15
-20 -15 -20 9 0 l25 20 -20 -26 c-10 -15 -24 -25 -30 -22 -6 2 -14 -3 -18 -12
-4 -10 -2 -14 6 -9 7 5 8 3 2 -7 -4 -8 -9 -20 -10 -27 -2 -8 -6 -17 -10 -20
-4 -4 -5 0 -2 9 4 9 1 16 -8 16 -7 0 -11 -4 -8 -9 10 -15 -7 -48 -24 -48 -10
0 -13 -3 -7 -8 13 -9 18 -35 5 -27 -5 3 -10 -1 -10 -10 0 -9 -4 -14 -9 -11 -5
4 -7 -3 -4 -14 3 -13 0 -20 -8 -20 -11 0 -11 -2 1 -10 10 -6 11 -10 3 -10 -7
0 -13 -7 -13 -15 0 -8 -6 -15 -12 -15 -9 0 -8 -4 2 -10 12 -8 12 -10 1 -10 -8
0 -11 -7 -8 -19 3 -13 0 -18 -7 -15 -7 3 -13 -2 -13 -10 0 -8 5 -12 11 -9 6 4
5 -1 -3 -10 -7 -9 -10 -17 -5 -17 4 0 -1 -7 -12 -16 -10 -8 -13 -12 -5 -8 9 4
12 2 9 -7 -3 -8 -13 -13 -23 -11 -14 3 -15 1 -4 -11 9 -10 18 -12 24 -6 5 5
14 9 19 9 6 0 0 -7 -13 -16 -17 -12 -22 -24 -19 -45 3 -15 1 -26 -3 -23 -4 2
-10 0 -14 -6 -3 -5 -2 -10 4 -10 7 0 7 -8 1 -25 -6 -15 -6 -26 0 -30 6 -4 10
-11 10 -16 0 -6 -6 -7 -12 -3 -10 6 -10 4 0 -8 10 -12 10 -18 1 -23 -8 -6 -7
-10 2 -16 12 -8 11 -11 -1 -19 -8 -5 -10 -10 -4 -10 14 0 13 -32 -1 -42 -6 -5
-6 -8 1 -8 7 0 14 -7 17 -14 4 -11 1 -13 -11 -9 -14 6 -15 4 -5 -8 10 -12 10
-18 0 -29 -9 -10 -9 -11 1 -6 9 6 11 1 8 -18 -3 -15 -1 -24 5 -21 10 7 7 -31
-4 -41 -4 -4 -7 -11 -7 -16 0 -5 10 1 23 14 12 13 19 19 15 14 -12 -15 -9 -28
4 -20 7 4 8 3 4 -5 -4 -6 -12 -9 -17 -6 -5 4 -9 1 -9 -4 0 -6 8 -11 18 -11 14
0 15 -2 2 -10 -13 -9 -13 -10 0 -10 13 0 13 -1 0 -10 -8 -5 -10 -10 -4 -10 7
0 14 -7 17 -14 4 -11 1 -13 -11 -10 -9 3 -6 -2 8 -11 14 -9 17 -14 8 -11 -10
3 -20 1 -23 -5 -4 -5 -1 -8 7 -7 7 2 14 -4 14 -12 1 -8 3 -18 4 -22 1 -5 3
-13 4 -19 0 -6 9 -16 19 -23 19 -15 24 -31 5 -20 -7 5 -8 3 -4 -5 5 -7 15 -10
23 -7 8 3 12 2 8 -3 -3 -5 1 -12 7 -14 10 -4 10 -6 1 -6 -16 -1 -17 -31 -2
-31 5 0 7 4 4 10 -3 5 -1 10 4 10 14 0 14 -17 1 -25 -6 -4 -7 -12 -3 -18 4 -7
8 -15 9 -19 1 -5 2 -10 3 -13 0 -3 11 0 24 6 20 11 21 11 7 -5 -15 -19 -22
-46 -12 -45 25 4 52 -3 47 -11 -3 -5 -13 -7 -23 -4 -14 5 -14 4 -2 -4 8 -6 18
-8 22 -6 4 3 8 0 8 -6 0 -6 5 -8 10 -5 6 4 9 1 8 -7 -2 -7 3 -12 10 -10 8 1
11 -2 7 -8 -3 -6 -10 -8 -15 -5 -4 3 -10 -1 -13 -8 -4 -10 2 -13 19 -9 13 2
24 9 24 15 0 6 3 7 6 4 4 -4 1 -13 -6 -22 -9 -11 -9 -15 -1 -15 7 0 9 -4 6
-10 -3 -6 1 -10 9 -10 9 0 16 -5 16 -11 0 -5 -6 -7 -12 -3 -8 5 -8 1 2 -12 22
-29 24 -30 17 -11 -12 32 24 15 43 -21 10 -18 21 -32 25 -32 4 1 10 -2 13 -6
4 -4 1 -4 -5 0 -19 10 -16 1 4 -15 9 -8 14 -9 11 -4 -4 6 -2 17 3 25 7 11 8 6
5 -15 -3 -16 -1 -37 5 -45 10 -13 10 -13 6 0 -2 8 0 24 5 35 8 18 8 18 4 -2
-2 -13 0 -23 5 -23 5 0 9 5 9 11 0 5 5 7 11 4 6 -5 4 -12 -8 -21 -12 -9 -13
-13 -5 -14 7 0 10 -5 6 -12 -4 -7 -3 -8 5 -4 6 4 9 11 7 15 -3 4 1 8 9 8 9 0
11 -6 6 -16 -6 -14 -7 -26 -2 -46 0 -3 9 -1 19 4 14 7 25 4 46 -14 16 -14 32
-22 36 -20 5 3 11 0 13 -5 3 -6 4 -5 2 2 -1 7 -8 12 -14 10 -7 -1 -10 2 -6 8
4 6 3 9 -2 8 -16 -5 -53 23 -52 40 1 16 2 16 6 0 4 -16 16 -23 27 -15 2 1 13
-6 23 -16 11 -9 23 -14 28 -10 4 5 4 2 0 -6 -6 -11 -4 -13 9 -8 10 4 19 1 23
-9 5 -13 8 -13 15 -2 8 10 9 10 5 -2 -2 -8 -10 -14 -16 -12 -7 1 -9 -2 -5 -9
4 -8 3 -9 -4 -5 -6 4 -8 14 -5 23 4 10 2 14 -5 9 -6 -3 -10 -15 -9 -25 1 -15
7 -17 37 -14 19 3 43 10 53 15 10 5 21 7 24 5 2 -3 -5 -8 -17 -12 -17 -5 -19
-10 -9 -21 9 -11 8 -18 -2 -31 -9 -11 -3 -10 19 6 17 12 32 18 32 12 0 -5 -8
-15 -17 -20 -10 -6 -13 -11 -8 -11 6 0 16 5 23 12 9 9 13 7 18 -5 3 -9 11 -14
16 -11 6 4 5 10 -3 14 -7 5 -14 15 -15 24 -2 11 3 13 19 7 12 -5 28 -6 35 -4
6 3 12 0 12 -6 0 -15 -18 -23 -25 -11 -3 5 -14 10 -23 10 -14 -1 -13 -3 4 -13
12 -7 19 -18 17 -24 -3 -7 0 -13 7 -13 6 0 9 4 6 8 -2 4 5 14 16 21 18 11 20
11 15 -1 -3 -8 -1 -21 4 -29 8 -11 13 -10 28 8 18 21 43 25 58 8 4 -4 3 -5 -4
-2 -6 4 -14 1 -16 -5 -4 -9 -6 -9 -6 2 -1 10 -6 8 -17 -8 -8 -12 -22 -22 -30
-22 -8 0 -14 -4 -14 -8 0 -4 9 -8 19 -8 11 0 19 5 18 10 -1 6 3 10 10 11 6 0
15 3 19 7 10 11 34 10 34 -1 0 -5 -7 -12 -15 -14 -11 -4 -10 -4 2 -3 20 1 25
33 10 54 -7 9 -6 11 7 6 9 -3 16 -10 16 -16 0 -5 5 -6 12 -2 7 5 8 3 2 -7 -12
-19 -14 -40 -4 -34 5 3 10 2 13 -2 2 -5 2 -2 1 5 -2 6 1 12 6 12 5 0 7 7 4 15
-4 8 -2 15 4 15 5 0 8 -16 6 -35 -1 -19 2 -35 7 -35 6 0 8 4 4 9 -3 5 -1 12 5
16 13 8 52 -19 42 -30 -4 -5 -1 -5 7 0 11 6 9 11 -9 25 -15 11 -19 19 -10 22
9 3 7 8 -6 18 -16 14 -17 13 -11 -2 3 -10 2 -18 -3 -18 -13 0 -13 21 0 40 6 9
10 11 10 3 0 -7 7 -10 15 -7 8 4 12 11 8 17 -4 6 -1 7 7 2 10 -6 9 -11 -4 -21
-11 -8 -13 -14 -6 -19 5 -3 8 -10 5 -15 -3 -4 2 -11 11 -14 10 -4 13 -2 8 6
-5 8 -2 9 10 5 10 -4 20 -7 22 -7 3 0 3 -4 0 -8 -3 -5 1 -9 9 -9 11 0 12 4 4
14 -9 10 -7 13 12 11 13 -2 27 -7 31 -13 5 -6 8 -5 8 3 0 7 5 10 10 7 6 -4 8
-12 4 -18 -3 -7 4 -1 16 12 11 13 18 31 16 38 -3 8 -2 12 3 8 5 -3 12 1 14 7
4 10 8 9 16 -2 10 -14 16 -7 12 13 -1 5 3 6 8 3 5 -4 12 0 15 6 2 7 4 4 3 -7
-2 -11 -6 -21 -11 -22 -5 -1 -13 -7 -17 -15 -7 -10 -9 -10 -9 0 0 6 -5 12 -12
12 -6 0 -8 -3 -5 -7 4 -3 2 -12 -5 -20 -8 -10 -8 -17 -1 -24 8 -8 13 -7 18 2
5 8 4 10 -3 5 -7 -4 -12 -3 -12 2 0 17 13 22 28 9 10 -8 13 -8 9 -1 -4 7 0 14
8 18 8 3 17 1 20 -5 4 -5 11 -7 16 -3 5 3 7 10 3 15 -3 5 -10 6 -16 3 -6 -4
-5 3 2 16 6 12 18 19 25 16 8 -3 17 3 20 15 4 10 10 17 15 14 5 -3 11 -1 15 5
4 6 11 8 16 5 12 -8 40 20 31 30 -4 4 4 2 16 -5 22 -11 23 -10 18 12 l-6 23
11 -22 c13 -24 32 -32 23 -10 -2 7 3 21 11 32 16 19 16 19 6 -2 -15 -29 -14
-32 7 -28 9 2 19 4 22 4 3 1 -2 6 -10 11 -9 6 -10 10 -3 10 6 0 14 -4 18 -9 9
-16 45 -8 50 10 6 18 45 23 45 6 0 -4 5 -5 10 -2 8 5 7 12 -2 23 -10 12 -10
14 0 8 7 -4 12 -2 12 6 0 8 5 6 11 -4 5 -10 15 -18 21 -18 7 0 7 5 -1 14 -9
11 -9 16 1 22 7 4 10 4 6 -1 -4 -4 -3 -14 3 -21 8 -9 5 -15 -9 -23 -11 -6 -23
-7 -27 -3 -5 4 -5 2 -1 -5 4 -8 0 -11 -14 -8 -11 2 -22 0 -25 -4 -6 -11 23
-36 32 -27 3 3 1 6 -6 6 -7 0 -9 5 -6 10 5 8 11 7 21 -1 8 -6 17 -9 21 -5 3 3
1 6 -6 6 -7 0 -9 5 -6 10 4 6 10 8 15 5 4 -3 10 2 14 10 3 8 12 12 20 9 8 -3
25 6 39 21 20 23 28 25 45 16 18 -9 19 -8 15 12 -5 22 -5 22 11 2 10 -11 15
-14 11 -8 -3 7 -1 21 4 31 7 14 6 19 -4 19 -7 0 -11 -7 -8 -14 3 -8 2 -13 -3
-12 -23 4 -35 -2 -28 -13 5 -9 2 -9 -9 1 -18 15 -23 26 -7 16 6 -3 10 -1 10 5
0 6 5 8 12 4 8 -5 9 0 6 14 -4 12 -1 25 4 29 6 3 8 1 5 -4 -4 -6 0 -13 8 -17
8 -3 17 -1 20 4 3 4 -1 11 -7 13 -8 4 -7 6 3 6 9 1 20 -6 23 -15 3 -8 2 -13
-2 -10 -5 3 -8 -8 -8 -25 0 -16 4 -29 8 -29 5 0 8 6 7 13 -3 25 1 37 13 35 7
-2 13 3 14 10 3 25 5 27 13 13 7 -11 10 -9 16 8 5 15 1 29 -12 44 -13 15 -13
18 -2 9 13 -10 19 -9 29 2 6 9 8 21 4 27 -5 8 -3 9 6 4 9 -6 12 -4 8 7 -4 8 0
15 7 15 10 0 11 -5 4 -19 -5 -10 -8 -22 -5 -27 8 -12 -19 -33 -30 -23 -4 4 -3
0 4 -9 6 -9 8 -20 4 -24 -4 -5 -1 -5 6 -1 7 5 11 10 8 13 -8 8 27 42 37 36 5
-3 5 3 -1 13 -14 29 -5 46 19 33 11 -5 17 -14 15 -18 -3 -4 1 -8 9 -8 8 0 12
4 9 8 -2 4 4 12 13 18 10 6 13 11 8 11 -6 0 -16 -5 -23 -12 -7 -7 -12 -8 -12
-2 0 15 21 33 34 28 6 -2 22 5 36 16 18 15 20 18 6 13 -27 -9 -11 16 18 27 17
7 13 8 -16 7 -36 -2 -48 -10 -30 -20 4 -2 2 -2 -5 -1 -7 2 -15 -1 -18 -6 -3
-5 5 -10 17 -12 19 -3 20 -4 6 -10 -10 -4 -23 1 -35 14 -10 12 -13 18 -6 14 7
-4 17 2 23 15 7 11 14 18 17 15 3 -3 12 2 20 12 8 9 12 11 8 4 -3 -6 -1 -12 5
-12 7 0 9 7 6 16 -3 9 -6 18 -6 21 0 3 -8 0 -17 -8 -16 -11 -16 -11 0 7 18 19
19 19 32 0 13 -18 14 -18 12 2 0 11 -5 18 -10 15 -5 -3 -7 0 -5 8 3 8 1 22 -4
32 -6 11 -5 17 3 17 7 0 9 3 6 6 -4 4 -13 1 -22 -6 -9 -8 -15 -8 -15 -2 0 6 4
13 10 17 13 8 1 35 -16 35 -17 0 -18 12 -1 30 10 12 9 12 -3 3 -21 -14 -47
-12 -47 4 0 9 4 10 14 1 11 -8 12 -7 7 6 -3 9 -10 16 -15 16 -5 0 -9 7 -9 16
0 13 3 14 13 5 10 -8 14 -7 14 3 0 8 -9 13 -23 11 -15 -1 -21 2 -17 11 2 7 12
10 21 7 14 -4 15 -3 2 5 -10 8 -18 8 -27 0 -7 -6 -13 -9 -14 -7 -6 33 -6 38 4
32 6 -4 8 0 4 10 -3 9 -1 20 5 23 8 5 5 10 -8 15 -14 5 -10 7 13 6 18 -1 31
-6 29 -12 -2 -5 -8 -9 -13 -8 -5 1 -10 -7 -10 -18 -2 -21 14 -24 37 -8 11 8 9
9 -10 3 -25 -7 -25 -7 -6 15 19 21 19 22 1 39 -13 12 -15 13 -9 2 7 -13 6 -13
-12 0 -10 8 -21 15 -23 17 -2 1 7 1 20 1 13 -1 31 -6 39 -12 8 -6 12 -7 8 -2
-4 5 -3 17 3 27 6 13 6 19 -1 19 -5 0 -10 -7 -10 -16 0 -8 -5 -12 -10 -9 -6 4
-8 11 -5 16 4 5 1 9 -4 9 -6 0 -11 -5 -11 -12 0 -6 -3 -9 -6 -5 -3 3 -2 12 2
19 12 19 12 71 -1 81 -6 6 -3 7 7 4 13 -5 17 3 20 33 4 47 0 62 -15 53 -7 -4
-6 1 2 10 12 15 11 17 -5 18 -11 0 -14 3 -7 5 7 3 10 13 7 22 -3 9 1 6 9 -8 9
-14 13 -29 10 -35 -3 -5 0 -4 8 3 10 9 10 15 1 24 -16 16 -15 50 1 67 7 9 7
11 1 8 -7 -4 -14 0 -18 8 -6 16 26 39 39 27 5 -4 5 -1 1 6 -5 8 -13 9 -26 2
-24 -13 -27 -13 -33 4 -4 10 -1 13 7 10 8 -3 17 0 22 7 4 8 3 10 -4 5 -7 -4
-12 -3 -12 3 0 5 6 12 13 14 9 4 9 6 -1 6 -7 1 -10 6 -6 12 4 8 -1 9 -16 4
-20 -6 -21 -5 -9 8 8 8 19 12 24 9 6 -2 5 1 -2 8 -6 7 -9 20 -6 29 4 13 3 14
-5 1 -6 -8 -9 -17 -6 -21 2 -4 -1 -11 -7 -15 -8 -4 -9 -3 -5 4 4 7 1 12 -6 12
-10 0 -10 2 1 9 11 7 10 10 -5 14 -16 4 -16 5 -2 6 12 1 15 6 11 18 -5 12 -3
14 8 8 8 -4 2 4 -12 18 -18 17 -25 34 -23 52 2 21 -1 26 -15 22 -11 -2 -18 1
-18 10 0 8 6 12 13 9 8 -3 11 0 7 9 -3 8 -9 13 -13 10 -15 -9 -19 23 -4 35 8
7 14 18 13 24 0 7 -2 6 -6 -2 -7 -18 -23 -4 -17 16 5 14 4 14 -4 2 -8 -10 -8
-18 0 -27 7 -9 7 -13 -1 -13 -11 0 -15 13 -12 38 1 6 -3 12 -8 12 -6 0 -7 7
-4 17 5 12 3 14 -7 8 -10 -6 -12 -4 -7 9 4 10 3 15 -3 11 -6 -3 -10 -2 -10 4
0 6 -8 8 -17 4 -16 -5 -15 -4 1 9 15 12 16 17 6 23 -9 6 -11 4 -5 -5 5 -9 4
-11 -4 -6 -9 6 -9 11 -1 21 10 11 8 13 -9 10 -24 -4 -37 10 -20 21 8 5 9 3 4
-6 -6 -9 -4 -11 5 -5 10 6 9 11 -5 21 -11 8 -15 19 -11 30 5 14 4 15 -9 4 -8
-7 -12 -17 -8 -23 3 -6 1 -7 -5 -3 -8 5 -9 13 -2 25 12 23 1 35 -17 19 -11 -9
-12 -7 -7 7 5 13 4 16 -4 11 -7 -4 -12 -1 -12 9 0 9 5 13 10 10 6 -3 10 -1 10
4 0 14 -17 14 -25 1 -10 -16 -25 -1 -18 17 4 11 3 14 -5 9 -7 -4 -12 -1 -12 7
0 12 -19 36 -55 65 -8 7 -15 10 -15 6 0 -4 14 -19 32 -34 24 -20 28 -29 18
-35 -8 -5 -11 -4 -6 3 3 6 -7 20 -23 31 -17 12 -33 31 -36 42 -6 17 -9 18 -23
7 -13 -11 -15 -11 -9 4 3 10 -1 22 -11 30 -13 11 -15 11 -7 -2 8 -13 6 -13 -8
-1 -9 7 -15 17 -12 21 3 5 0 12 -6 16 -8 4 -9 3 -5 -4 4 -7 2 -12 -3 -12 -6 0
-11 5 -11 10 0 6 -7 10 -15 10 -9 0 -20 10 -25 23 -5 12 -9 16 -9 10 -1 -7 -6
-13 -12 -13 -5 0 -7 6 -3 13 6 9 4 9 -8 -1 -11 -9 -18 -10 -23 -2 -3 5 -3 10
1 10 3 0 1 7 -6 15 -9 11 -16 12 -25 5 -8 -7 -19 -4 -35 10 -28 25 -37 26 -19
3 13 -16 12 -17 -3 -4 -10 7 -18 21 -19 30 0 12 -2 11 -9 -4 -8 -18 -9 -18 -9
-2 -1 10 -5 15 -11 12 -5 -3 -10 -1 -10 5 0 6 -5 8 -10 5 -6 -4 -8 -11 -5 -16
3 -5 -1 -6 -9 -3 -9 3 -13 11 -9 18 5 8 3 8 -8 0 -16 -12 -64 7 -51 21 4 4 -1
5 -10 2 -10 -4 -25 1 -35 11 -16 16 -17 16 -10 0 3 -10 2 -18 -3 -18 -6 0 -10
4 -10 9 0 5 -10 7 -22 3 -16 -4 -19 -2 -13 9 7 11 6 12 -6 2 -15 -12 -36 -12
-56 0 -6 4 -14 3 -17 -2 -7 -11 -25 -9 -45 3 -9 6 -12 5 -7 -2 8 -14 -34 -12
-53 2 -12 9 -13 8 -6 -3z m-205 -50 c0 -5 -7 -12 -16 -15 -14 -5 -15 -4 -4 9
14 17 20 19 20 6z m1290 -725 c0 -3 -4 -8 -10 -11 -5 -3 -10 -1 -10 4 0 6 5
11 10 11 6 0 10 -2 10 -4z m25 -126 c-3 -5 -11 -10 -16 -10 -6 0 -7 5 -4 10 3
6 11 10 16 10 6 0 7 -4 4 -10z m15 -94 c0 -3 -4 -8 -10 -11 -5 -3 -10 -1 -10
4 0 6 5 11 10 11 6 0 10 -2 10 -4z m-1965 -466 c3 -5 2 -10 -4 -10 -5 0 -13 5
-16 10 -3 6 -2 10 4 10 5 0 13 -4 16 -10z m10 -30 c3 -6 -1 -7 -9 -4 -18 7
-21 14 -7 14 6 0 13 -4 16 -10z m54 -124 c9 -11 9 -16 -1 -22 -7 -4 -10 -4 -6
1 4 4 3 14 -3 22 -6 7 -9 13 -6 13 2 0 10 -6 16 -14z m1966 -6 c-3 -5 -12 -10
-18 -10 -7 0 -6 4 3 10 19 12 23 12 15 0z m-1930 -58 c-3 -3 -11 0 -18 7 -9
10 -8 11 6 5 10 -3 15 -9 12 -12z m1876 -5 c-10 -9 -11 -8 -5 6 3 10 9 15 12
12 3 -3 0 -11 -7 -18z m-25 -68 c11 -18 -14 -35 -28 -20 -11 10 -10 11 5 6 19
-8 24 10 5 18 -10 4 -10 6 -1 6 6 1 15 -4 19 -10z m-51 -9 c3 -5 1 -10 -4 -10
-6 0 -11 5 -11 10 0 6 2 10 4 10 3 0 8 -4 11 -10z m-57 -65 c-3 -3 -9 2 -12
12 -6 14 -5 15 5 6 7 -7 10 -15 7 -18z m-45 -10 c-3 -9 -8 -14 -10 -11 -3 3
-2 9 2 15 9 16 15 13 8 -4z m37 -49 c0 -7 -4 -6 -9 2 -6 11 -10 10 -16 -5 -5
-10 -7 -22 -6 -26 1 -5 -3 -6 -8 -3 -5 3 -8 14 -7 24 2 9 -2 21 -8 25 -6 5 0
5 13 2 18 -6 22 -4 15 6 -6 12 -5 12 9 0 9 -7 17 -19 17 -25z m-130 -16 c0 -5
-5 -10 -11 -10 -5 0 -7 5 -4 10 3 6 8 10 11 10 2 0 4 -4 4 -10z m-35 -40 c3
-6 -1 -7 -9 -4 -18 7 -21 14 -7 14 6 0 13 -4 16 -10z m-65 -14 c0 -2 -7 -7
-16 -10 -8 -3 -12 -2 -9 4 6 10 25 14 25 6z m44 -7 c-2 -4 0 -10 6 -14 5 -3
10 -1 10 4 0 6 6 11 12 11 7 0 0 -12 -15 -27 -23 -24 -29 -26 -37 -13 -5 8 -9
20 -9 25 0 6 3 4 6 -2 2 -7 12 -13 20 -13 14 0 14 2 0 18 -14 15 -15 19 -2 19
8 0 12 -4 9 -8z m-1244 -28 c0 -10 -6 -21 -14 -24 -15 -6 -16 9 -3 31 11 17
17 15 17 -7z m1083 -33 c-2 -5 -10 -8 -18 -8 -8 0 -16 3 -18 8 -3 4 5 7 18 7
13 0 21 -3 18 -7z m-908 -37 c3 -5 2 -12 -3 -15 -5 -3 -9 1 -9 9 0 17 3 19 12
6z m45 -47 c0 -8 -5 -12 -10 -9 -6 4 -8 11 -5 16 9 14 15 11 15 -7z m560 6 c0
-5 -5 -10 -11 -10 -5 0 -7 5 -4 10 3 6 8 10 11 10 2 0 4 -4 4 -10z m63 -2 c-2
-5 -10 -8 -18 -8 -8 0 -16 3 -18 8 -3 4 5 7 18 7 13 0 21 -3 18 -7z m-463 -18
c0 -5 -5 -10 -11 -10 -5 0 -7 5 -4 10 3 6 8 10 11 10 2 0 4 -4 4 -10z m91 -7
c13 -16 12 -17 -3 -4 -10 7 -18 15 -18 17 0 8 8 3 21 -13z m269 12 c0 -2 -10
-9 -22 -15 -22 -11 -22 -10 -4 4 21 17 26 19 26 11z m-103 -27 c3 6 9 12 15
12 6 0 6 -6 -2 -15 -6 -8 -9 -19 -5 -24 3 -6 0 -9 -7 -6 -7 3 -20 15 -27 28
-13 21 -13 21 4 7 14 -11 19 -12 22 -2z m56 -22 c-4 -5 1 -7 10 -3 11 4 14 2
10 -9 -4 -11 -9 -12 -19 -3 -8 6 -14 8 -14 3 0 -4 -5 -3 -12 4 -8 8 -8 15 2
27 10 12 15 13 21 3 4 -6 5 -16 2 -22z m-329 3 c-3 -5 -10 -7 -15 -3 -5 3 -7
10 -3 15 3 5 10 7 15 3 5 -3 7 -10 3 -15z m239 -3 c4 -10 1 -13 -9 -9 -15 6
-19 23 -5 23 5 0 11 -7 14 -14z"/>
<path d="M1400 199 c0 -5 5 -7 10 -4 6 3 10 8 10 11 0 2 -4 4 -10 4 -5 0 -10
-5 -10 -11z"/>
<path d="M1470 2345 c0 -2 6 -8 13 -14 10 -8 14 -7 14 2 0 8 -6 14 -14 14 -7
0 -13 -1 -13 -2z"/>
<path d="M2235 1631 c-3 -5 -2 -12 3 -15 5 -3 9 1 9 9 0 17 -3 19 -12 6z"/>
<path d="M2300 1331 c0 -6 4 -13 10 -16 6 -3 7 1 4 9 -7 18 -14 21 -14 7z"/>
<path d="M2335 1189 c-4 -6 -5 -12 -2 -15 2 -3 7 2 10 11 7 17 1 20 -8 4z"/>
<path d="M2287 1163 c-2 -5 -3 -18 -3 -30 1 -23 10 -27 35 -14 11 7 10 9 -3
14 -9 4 -13 13 -10 22 6 15 -11 22 -19 8z m18 -32 c3 -5 2 -12 -3 -15 -5 -3
-9 1 -9 9 0 17 3 19 12 6z"/>
<path d="M2314 1016 c1 -8 5 -18 8 -22 4 -3 5 1 4 10 -1 8 -5 18 -8 22 -4 3
-5 -1 -4 -10z"/>
<path d="M2395 660 c3 -5 8 -10 11 -10 2 0 4 5 4 10 0 6 -5 10 -11 10 -5 0 -7
-4 -4 -10z"/>
<path d="M2235 550 c3 -5 8 -10 11 -10 2 0 4 5 4 10 0 6 -5 10 -11 10 -5 0 -7
-4 -4 -10z"/>
<path d="M2250 518 c0 -6 3 -8 7 -5 3 4 13 1 22 -6 14 -11 14 -10 2 6 -15 20
-31 22 -31 5z"/>
<path d="M553 508 c3 -9 3 -19 -1 -21 -4 -2 -1 -2 6 -1 6 2 12 -2 12 -8 0 -6
3 -9 6 -5 3 3 -2 16 -11 29 -10 13 -15 16 -12 6z"/>
<path d="M2210 479 c0 -5 5 -7 10 -4 6 3 10 8 10 11 0 2 -4 4 -10 4 -5 0 -10
-5 -10 -11z"/>
<path d="M2171 444 c0 -11 3 -14 6 -6 3 7 2 16 -1 19 -3 4 -6 -2 -5 -13z"/>
<path d="M575 440 c-3 -5 -1 -10 4 -10 6 0 11 5 11 10 0 6 -2 10 -4 10 -3 0
-8 -4 -11 -10z"/>
<path d="M2140 420 c-9 -6 -10 -10 -3 -10 6 0 15 5 18 10 8 12 4 12 -15 0z"/>
<path d="M2010 362 c0 -5 7 -9 15 -9 8 0 12 4 9 9 -3 4 -9 8 -15 8 -5 0 -9 -4
-9 -8z"/>
<path d="M1830 320 c-8 -15 -6 -21 11 -30 18 -10 19 -9 11 7 -5 10 -7 24 -5
31 7 19 -5 14 -17 -8z"/>
<path d="M1765 300 c-4 -6 -10 -8 -15 -5 -5 3 -13 -3 -19 -12 -7 -11 -14 -14
-18 -8 -14 18 -33 16 -55 -5 -13 -12 -24 -16 -28 -10 -4 6 -15 2 -28 -11 -22
-20 -21 -46 0 -33 8 5 9 1 5 -12 -7 -18 -6 -18 6 -2 8 10 18 14 23 10 4 -4 2
2 -6 12 -14 18 -13 19 3 13 11 -4 16 -3 12 4 -4 6 1 9 11 7 11 -2 18 2 17 10
-2 7 7 12 20 12 18 0 19 -2 7 -11 -12 -9 -11 -9 5 -3 11 4 34 8 52 8 17 1 31
5 30 10 -1 5 4 11 12 14 9 3 11 0 6 -8 -5 -8 -4 -11 3 -6 6 4 8 14 5 22 -4 11
-9 12 -16 5 -14 -14 -30 -14 -22 -1 3 6 4 10 1 10 -3 0 -8 -5 -11 -10z m5 -16
c0 -8 -19 -13 -24 -6 -3 5 1 9 9 9 8 0 15 -2 15 -3z m-153 -47 c0 -8 -6 -14
-14 -14 -9 0 -10 4 -2 14 6 7 12 13 14 13 1 0 2 -6 2 -13z"/>
<path d="M1930 299 c0 -5 5 -7 10 -4 6 3 10 8 10 11 0 2 -4 4 -10 4 -5 0 -10
-5 -10 -11z"/>
<path d="M770 279 c0 -5 5 -7 10 -4 6 3 10 8 10 11 0 2 -4 4 -10 4 -5 0 -10
-5 -10 -11z"/>
<path d="M795 270 c-3 -6 1 -7 9 -4 18 7 21 14 7 14 -6 0 -13 -4 -16 -10z"/>
<path d="M896 245 c4 -8 8 -15 10 -15 2 0 4 7 4 15 0 8 -4 15 -10 15 -5 0 -7
-7 -4 -15z"/>
<path d="M846 242 c-3 -5 1 -9 9 -9 8 0 12 4 9 9 -3 4 -7 8 -9 8 -2 0 -6 -4
-9 -8z"/>
<path d="M1766 242 c-3 -5 1 -9 9 -9 8 0 12 4 9 9 -3 4 -7 8 -9 8 -2 0 -6 -4
-9 -8z"/>
<path d="M1664 224 c-18 -14 -18 -15 4 -4 12 6 22 13 22 15 0 8 -5 6 -26 -11z"/>
<path d="M1550 224 c0 -3 7 -12 15 -21 8 -8 12 -19 9 -25 -4 -7 -2 -8 4 -4 8
5 8 13 0 31 -10 22 -28 34 -28 19z"/>
<path d="M970 201 c0 -6 4 -13 10 -16 6 -3 7 1 4 9 -7 18 -14 21 -14 7z"/>
</g>
</svg>
